<?xml version="1.0" encoding="utf-8"?>
<!-- Generator: Adobe Illustrator 25.2.0, SVG Export Plug-In . SVG Version: 6.00 Build 0)  -->
<svg version="1.1" id="artwork" xmlns="http://www.w3.org/2000/svg" xmlns:xlink="http://www.w3.org/1999/xlink" x="0px" y="0px"
	 viewBox="0 0 843.7 250" style="enable-background:new 0 0 843.7 250;" xml:space="preserve">
<style type="text/css">
	.st0{fill:#A6A6A6;}
	.st1{fill:#FFFFFF;}
	.st2{stroke:#838182;stroke-width:3;stroke-miterlimit:10;}
	.st3{fill:#09D93A;}
	.st4{fill:none;stroke:#000000;stroke-width:25;stroke-miterlimit:10;}
</style>
<g>
	<g>
		<path d="M812.5,250H31.2C14.1,250,0,235.9,0,218.7V31.2C0,14.1,14.1,0,31.2,0h781.2c17.2,0,31.2,14.1,31.2,31.2v187.5
			C843.7,235.9,829.7,250,812.5,250z"/>
	</g>
	<path class="st0" d="M812.5,5c14.5,0,26.2,11.8,26.2,26.3v187.5c0,14.5-11.8,26.3-26.2,26.3H31.2C16.8,245,5,233.2,5,218.8V31.3
		C5,16.8,16.8,5,31.2,5H812.5 M812.5,0H31.2C14.1,0,0,14.1,0,31.3v187.5C0,235.9,14.1,250,31.2,250h781.2
		c17.2,0,31.2-14.1,31.2-31.2V31.3C843.7,14.1,829.7,0,812.5,0L812.5,0z"/>
	<g>
		<path class="st1" d="M115,88.4c0,5.5-2,9.8-5.9,12.9c-3.9,3.2-9.4,4.7-16.5,4.7c-6.5,0-12.2-1.2-17.2-3.7v-12
			c4.1,1.8,7.6,3.1,10.4,3.9c2.8,0.7,5.4,1.1,7.8,1.1c2.8,0,5-0.5,6.5-1.6c1.5-1.1,2.3-2.7,2.3-4.8c0-1.2-0.3-2.2-1-3.2
			c-0.7-0.9-1.6-1.8-2.9-2.7c-1.3-0.9-3.9-2.2-7.9-4.1c-3.7-1.7-6.5-3.4-8.3-5c-1.9-1.6-3.3-3.5-4.4-5.6c-1.1-2.1-1.7-4.6-1.7-7.5
			c0-5.4,1.8-9.6,5.5-12.7c3.6-3.1,8.7-4.6,15.1-4.6c3.2,0,6.2,0.4,9,1.1c2.9,0.7,5.9,1.8,9,3.2l-4.2,10c-3.2-1.3-5.9-2.3-8-2.8
			c-2.1-0.5-4.2-0.8-6.2-0.8c-2.4,0-4.3,0.6-5.6,1.7c-1.3,1.1-2,2.6-2,4.4c0,1.1,0.3,2.1,0.8,3c0.5,0.8,1.4,1.7,2.5,2.4
			c1.1,0.8,3.9,2.2,8.2,4.3c5.7,2.7,9.6,5.4,11.7,8.2C113.9,81.2,115,84.5,115,88.4z"/>
		<path class="st1" d="M151.7,54.5c-4.8,0-8.6,1.8-11.2,5.5c-2.7,3.6-4,8.7-4,15.2c0,13.5,5.1,20.3,15.2,20.3
			c4.3,0,9.4-1.1,15.5-3.2V103c-5,2.1-10.5,3.1-16.7,3.1c-8.8,0-15.6-2.7-20.3-8c-4.7-5.4-7-13-7-23.1c0-6.3,1.1-11.8,3.4-16.6
			c2.3-4.7,5.6-8.4,9.9-10.9c4.3-2.5,9.3-3.8,15.1-3.8c5.9,0,11.8,1.4,17.8,4.3l-4.2,10.5c-2.3-1.1-4.6-2-6.8-2.8
			C156.2,54.9,153.9,54.5,151.7,54.5z"/>
		<path class="st1" d="M217.3,105.3l-4.4-14.4h-22.1l-4.4,14.4h-13.9l21.4-60.9h15.7l21.5,60.9H217.3z M209.8,80.1
			c-4.1-13.1-6.4-20.5-6.9-22.2c-0.5-1.7-0.9-3.1-1.1-4.1c-0.9,3.5-3.5,12.3-7.8,26.3H209.8z"/>
		<path class="st1" d="M251.6,82v23.3h-12.9V44.6h17.7c8.2,0,14.3,1.5,18.3,4.5c4,3,5.9,7.6,5.9,13.7c0,3.6-1,6.7-2.9,9.5
			c-2,2.8-4.7,5-8.3,6.5c9.1,13.6,15.1,22.5,17.8,26.4H273L258.5,82H251.6z M251.6,71.6h4.2c4.1,0,7.1-0.7,9-2
			c1.9-1.4,2.9-3.5,2.9-6.4c0-2.9-1-4.9-3-6.1c-2-1.2-5-1.8-9.2-1.8h-3.9V71.6z"/>
		<path class="st1" d="M294.9,105.3V44.6h12.9v60.7H294.9z"/>
		<path class="st1" d="M348.8,54.5c-4.8,0-8.6,1.8-11.2,5.5c-2.7,3.6-4,8.7-4,15.2c0,13.5,5.1,20.3,15.2,20.3
			c4.3,0,9.4-1.1,15.5-3.2V103c-5,2.1-10.5,3.1-16.7,3.1c-8.8,0-15.6-2.7-20.3-8c-4.7-5.4-7-13-7-23.1c0-6.3,1.1-11.8,3.4-16.6
			c2.3-4.7,5.6-8.4,9.9-10.9c4.3-2.5,9.3-3.8,15.1-3.8c5.9,0,11.8,1.4,17.8,4.3l-4.2,10.5c-2.3-1.1-4.6-2-6.8-2.8
			C353.3,54.9,351,54.5,348.8,54.5z"/>
		<path class="st1" d="M414.3,105.3l-4.4-14.4h-22.1l-4.4,14.4h-13.9L391,44.4h15.7l21.5,60.9H414.3z M406.9,80.1
			c-4.1-13.1-6.4-20.5-6.9-22.2c-0.5-1.7-0.9-3.1-1.1-4.1c-0.9,3.5-3.5,12.3-7.8,26.3H406.9z"/>
		<path class="st1" d="M79.1,207.3v-60.7H92v50.1h24.6v10.6H79.1z"/>
		<path class="st1" d="M136.4,146.6l0.6,0.9c-1.4,5.5-3.8,12.1-7.3,19.9h-9.1c1.9-8.2,3.3-15.1,4.2-20.8H136.4z"/>
		<path class="st1" d="M182.7,207.3l-4.4-14.4h-22.1l-4.4,14.4H138l21.4-60.9h15.7l21.5,60.9H182.7z M175.3,182.1
			c-4.1-13.1-6.4-20.5-6.9-22.2c-0.5-1.7-0.9-3.1-1.1-4.1c-0.9,3.5-3.5,12.3-7.8,26.3H175.3z"/>
		<path class="st1" d="M246.2,165.5c0,6.5-2,11.5-6.1,15c-4.1,3.5-9.9,5.2-17.4,5.2h-5.5v21.6h-12.9v-60.7h19.4
			c7.4,0,13,1.6,16.8,4.8C244.2,154.5,246.2,159.3,246.2,165.5z M217.1,175.2h4.2c4,0,6.9-0.8,8.9-2.3c2-1.6,2.9-3.8,2.9-6.8
			c0-3-0.8-5.2-2.5-6.7c-1.6-1.4-4.2-2.2-7.7-2.2h-5.9V175.2z"/>
		<path class="st1" d="M306.4,207.3h-14.6l-15.9-25.6l-5.4,3.9v21.7h-12.9v-60.7h12.9v27.8l5.1-7.1l16.4-20.6h14.3l-21.2,26.9
			L306.4,207.3z"/>
	</g>
	<g>
		<path class="st2" d="M700.9,225h-64.7c-37.4,0-67.6-30.3-67.6-67.6V92.6c0-37.4,30.3-67.6,67.6-67.6h64.7
			c37.4,0,67.6,30.3,67.6,67.6v64.7C768.5,194.7,738.2,225,700.9,225z"/>
		<path class="st3" d="M699.9,208.9h-62.9c-29,0-52.5-23.5-52.5-52.5V93.6c0-29,23.5-52.5,52.5-52.5h62.9c29,0,52.5,23.5,52.5,52.5
			v62.9C752.4,185.4,728.9,208.9,699.9,208.9z"/>
		<line class="st4" x1="591.9" y1="201.6" x2="746.5" y2="47"/>
		<g>
			<circle cx="668.5" cy="125" r="24.1"/>
		</g>
		<g>
			<g>
				<path class="st3" d="M654.1,131.6h9.6v0.1c-0.3,0.9-0.6,2-0.7,3.1c0,2.5,1.8,4.2,5.4,4.9c2.5,0.5,4.6,0.7,6.3,0.7v0.2h-5.9
					c-8.7,0-13.7-1.2-14.8-3.7c-0.2,0-0.4-0.7-0.6-2C653.6,133.8,653.8,132.7,654.1,131.6z M662.4,113.2c3.2,0,6.2,0.6,8.9,1.7
					c-1.7,3.6-2.7,5.9-2.8,7c0,0.8,0.7,1.2,2.1,1.2c6.9,0,10.4,0.8,10.4,2.5v0.6c0,0.6-1.9,4.9-5.6,13c-3.2,0-6.2-0.6-8.9-1.7
					c1.7-3.6,2.7-5.9,2.8-7c0-0.8-0.7-1.2-2.1-1.2c-6.9,0-10.4-0.8-10.4-2.5v-0.6c0-0.6,1.5-4.1,4.4-10.3
					C662,114.2,662.4,113.3,662.4,113.2z M663.1,111.6h5.9c8.7,0,13.7,1.2,14.8,3.7c0.2,0,0.4,0.7,0.6,2c-0.2,1.1-0.4,2.2-0.7,3.3
					h-9.6v-0.1c0.3-0.9,0.6-2,0.7-3.1c0-2.5-1.8-4.2-5.4-4.9c-2.5-0.5-4.6-0.7-6.3-0.7V111.6z"/>
			</g>
		</g>
		<path d="M617.3,82.7c9.1,0,16.4-7.4,16.4-16.4s-7.4-16.4-16.4-16.4s-16.4,7.4-16.4,16.4S608.3,82.7,617.3,82.7z M628.8,86.8h-2.1
			c-2.8,1.3-6,2.1-9.4,2.1s-6.5-0.7-9.4-2.1h-2.1c-9.5,0-17.2,7.7-17.2,17.2v5.3c0,3.4,2.8,6.2,6.2,6.2h45.2c3.4,0,6.2-2.8,6.2-6.2
			v-5.3C646.1,94.6,638.3,86.8,628.8,86.8z"/>
		<path d="M709.1,161.9c9.1,0,16.4-7.4,16.4-16.4s-7.4-16.4-16.4-16.4s-16.4,7.4-16.4,16.4S700,161.9,709.1,161.9z M720.6,166h-2.1
			c-2.8,1.3-6,2.1-9.4,2.1s-6.5-0.7-9.4-2.1h-2.1c-9.5,0-17.2,7.7-17.2,17.2v5.3c0,3.4,2.8,6.2,6.2,6.2h45.2c3.4,0,6.2-2.8,6.2-6.2
			v-5.3C737.8,173.7,730.1,166,720.6,166z"/>
	</g>
</g>
</svg>
