<?xml version="1.0" encoding="utf-8"?>
<!-- Generator: Adobe Illustrator 25.2.0, SVG Export Plug-In . SVG Version: 6.00 Build 0)  -->
<svg version="1.1" id="artwork" xmlns="http://www.w3.org/2000/svg" xmlns:xlink="http://www.w3.org/1999/xlink" x="0px" y="0px"
	 viewBox="0 0 843.7 250" style="enable-background:new 0 0 843.7 250;" xml:space="preserve">
<style type="text/css">
	.st0{fill:#A6A6A6;}
	.st1{fill:#FFFFFF;}
	.st2{stroke:#838182;stroke-width:3;stroke-miterlimit:10;}
	.st3{fill:#09D93A;}
	.st4{fill:none;stroke:#000000;stroke-width:25;stroke-miterlimit:10;}
</style>
<g>
	<g>
		<path d="M812.5,250H31.2C14.1,250,0,235.9,0,218.7V31.2C0,14.1,14.1,0,31.2,0h781.2c17.2,0,31.2,14.1,31.2,31.2v187.5
			C843.7,235.9,829.7,250,812.5,250z"/>
	</g>
	<path class="st0" d="M812.5,5c14.5,0,26.2,11.8,26.2,26.3v187.5c0,14.5-11.8,26.3-26.2,26.3H31.2C16.8,245,5,233.2,5,218.8V31.3
		C5,16.8,16.8,5,31.2,5H812.5 M812.5,0H31.2C14.1,0,0,14.1,0,31.3v187.5C0,235.9,14.1,250,31.2,250h781.2
		c17.2,0,31.2-14.1,31.2-31.2V31.3C843.7,14.1,829.7,0,812.5,0L812.5,0z"/>
	<g>
		<path class="st1" d="M112.6,76.3c0,8.5-2.4,14.9-7.2,19.4s-11.8,6.8-20.9,6.8H70V51h16.1c8.4,0,14.9,2.2,19.5,6.6
			S112.6,68.3,112.6,76.3z M101.3,76.5c0-11-4.9-16.6-14.6-16.6h-5.8v33.5h4.7C96,93.4,101.3,87.8,101.3,76.5z"/>
		<path class="st1" d="M169.9,76.7c0,8.5-2.1,15-6.3,19.6s-10.3,6.9-18.1,6.9s-13.9-2.3-18.1-6.9S121,85.2,121,76.6
			c0-8.6,2.1-15.1,6.3-19.6c4.2-4.5,10.3-6.8,18.2-6.8c7.9,0,13.9,2.3,18.1,6.8C167.8,61.6,169.9,68.1,169.9,76.7z M132.4,76.7
			c0,5.7,1.1,10.1,3.3,13c2.2,2.9,5.4,4.4,9.8,4.4c8.7,0,13-5.8,13-17.3c0-11.6-4.3-17.4-13-17.4c-4.3,0-7.6,1.5-9.8,4.4
			C133.5,66.6,132.4,70.9,132.4,76.7z"/>
		<path class="st1" d="M230.6,102.4h-12.4l-7-27c-0.3-1-0.7-2.9-1.3-6c-0.6-3-1-5-1.1-6.1c-0.1,1.3-0.5,3.3-1.1,6.1
			c-0.6,2.8-1,4.8-1.3,6l-6.9,26.9h-12.4L174.1,51h10.7l6.6,28.1c1.1,5.2,2,9.7,2.5,13.5c0.1-1.3,0.5-3.4,1-6.2c0.5-2.8,1-5,1.4-6.5
			l7.5-28.8h10.3l7.5,28.8c0.3,1.3,0.7,3.3,1.2,5.9c0.5,2.6,0.9,4.9,1.1,6.8c0.2-1.8,0.6-4.1,1.1-6.8c0.5-2.7,1-4.9,1.4-6.6L233,51
			h10.7L230.6,102.4z"/>
		<path class="st1" d="M295.8,102.4h-13.9l-22.4-38.9h-0.3c0.4,6.9,0.7,11.8,0.7,14.7v24.2h-9.7V51h13.7l22.3,38.5h0.2
			c-0.4-6.7-0.5-11.4-0.5-14.2V51h9.8V102.4z"/>
		<path class="st1" d="M308.7,102.4V51h10.9v42.4h20.8v9H308.7z"/>
		<path class="st1" d="M396,76.7c0,8.5-2.1,15-6.3,19.6s-10.3,6.9-18.1,6.9s-13.9-2.3-18.1-6.9s-6.3-11.1-6.3-19.7
			c0-8.6,2.1-15.1,6.3-19.6c4.2-4.5,10.3-6.8,18.2-6.8c7.9,0,13.9,2.3,18.1,6.8C394,61.6,396,68.1,396,76.7z M358.5,76.7
			c0,5.7,1.1,10.1,3.3,13c2.2,2.9,5.4,4.4,9.8,4.4c8.7,0,13-5.8,13-17.3c0-11.6-4.3-17.4-13-17.4c-4.3,0-7.6,1.5-9.8,4.4
			C359.6,66.6,358.5,70.9,358.5,76.7z"/>
		<path class="st1" d="M438.2,102.4l-3.7-12.2h-18.7l-3.7,12.2h-11.7l18.1-51.6h13.3l18.2,51.6H438.2z M431.8,81.1
			c-3.4-11.1-5.4-17.4-5.8-18.8c-0.4-1.5-0.7-2.6-0.9-3.4c-0.8,3-3,10.4-6.6,22.3H431.8z"/>
		<path class="st1" d="M499,76.3c0,8.5-2.4,14.9-7.2,19.4s-11.8,6.8-20.9,6.8h-14.6V51h16.1c8.4,0,14.9,2.2,19.5,6.6
			S499,68.3,499,76.3z M487.7,76.5c0-11-4.9-16.6-14.6-16.6h-5.8v33.5h4.7C482.4,93.4,487.7,87.8,487.7,76.5z"/>
		<path class="st1" d="M89.8,188.8H78.9v-42.3h-14v-9.1h38.8v9.1h-14V188.8z"/>
		<path class="st1" d="M153.8,188.8h-10.9v-22.2h-20.4v22.2h-10.9v-51.4h10.9v20.1h20.4v-20.1h10.9V188.8z"/>
		<path class="st1" d="M196.4,188.8h-29.6v-51.4h29.6v8.9h-18.7v11.3h17.4v8.9h-17.4v13.3h18.7V188.8z"/>
		<path class="st1" d="M257.2,188.8l-3.7-12.2h-18.7l-3.7,12.2h-11.7l18.1-51.6h13.3l18.2,51.6H257.2z M250.9,167.5
			c-3.4-11.1-5.4-17.4-5.8-18.8c-0.4-1.5-0.7-2.6-0.9-3.4c-0.8,3-3,10.4-6.6,22.3H250.9z"/>
		<path class="st1" d="M311,153.5c0,5.5-1.7,9.8-5.2,12.7c-3.5,2.9-8.4,4.4-14.7,4.4h-4.7v18.3h-10.9v-51.4h16.4
			c6.2,0,11,1.3,14.2,4C309.3,144.2,311,148.2,311,153.5z M286.4,161.6h3.6c3.4,0,5.9-0.7,7.5-2c1.7-1.3,2.5-3.3,2.5-5.8
			c0-2.6-0.7-4.4-2.1-5.7c-1.4-1.2-3.6-1.8-6.6-1.8h-5V161.6z"/>
		<path class="st1" d="M362,188.8h-12.4l-13.5-21.7l-4.6,3.3v18.4h-10.9v-51.4h10.9V161l4.3-6l13.9-17.5h12.1l-17.9,22.7L362,188.8z
			"/>
	</g>
	<g>
		<path class="st2" d="M700.9,225h-64.7c-37.4,0-67.6-30.3-67.6-67.6V92.6c0-37.4,30.3-67.6,67.6-67.6h64.7
			c37.4,0,67.6,30.3,67.6,67.6v64.7C768.5,194.7,738.2,225,700.9,225z"/>
		<path class="st3" d="M699.9,208.9h-62.9c-29,0-52.5-23.5-52.5-52.5V93.6c0-29,23.5-52.5,52.5-52.5h62.9c29,0,52.5,23.5,52.5,52.5
			v62.9C752.4,185.4,728.9,208.9,699.9,208.9z"/>
		<line class="st4" x1="591.9" y1="201.6" x2="746.5" y2="47"/>
		<g>
			<circle cx="668.5" cy="125" r="24.1"/>
		</g>
		<g>
			<g>
				<path class="st3" d="M654.1,131.6h9.6v0.1c-0.3,0.9-0.6,2-0.7,3.1c0,2.5,1.8,4.2,5.4,4.9c2.5,0.5,4.6,0.7,6.3,0.7v0.2h-5.9
					c-8.7,0-13.7-1.2-14.8-3.7c-0.2,0-0.4-0.7-0.6-2C653.6,133.8,653.8,132.7,654.1,131.6z M662.4,113.2c3.2,0,6.2,0.6,8.9,1.7
					c-1.7,3.6-2.7,5.9-2.8,7c0,0.8,0.7,1.2,2.1,1.2c6.9,0,10.4,0.8,10.4,2.5v0.6c0,0.6-1.9,4.9-5.6,13c-3.2,0-6.2-0.6-8.9-1.7
					c1.7-3.6,2.7-5.9,2.8-7c0-0.8-0.7-1.2-2.1-1.2c-6.9,0-10.4-0.8-10.4-2.5v-0.6c0-0.6,1.5-4.1,4.4-10.3
					C662,114.2,662.4,113.3,662.4,113.2z M663.1,111.6h5.9c8.7,0,13.7,1.2,14.8,3.7c0.2,0,0.4,0.7,0.6,2c-0.2,1.1-0.4,2.2-0.7,3.3
					h-9.6v-0.1c0.3-0.9,0.6-2,0.7-3.1c0-2.5-1.8-4.2-5.4-4.9c-2.5-0.5-4.6-0.7-6.3-0.7V111.6z"/>
			</g>
		</g>
		<path d="M617.3,82.7c9.1,0,16.4-7.4,16.4-16.4s-7.4-16.4-16.4-16.4s-16.4,7.4-16.4,16.4S608.3,82.7,617.3,82.7z M628.8,86.8h-2.1
			c-2.8,1.3-6,2.1-9.4,2.1s-6.5-0.7-9.4-2.1h-2.1c-9.5,0-17.2,7.7-17.2,17.2v5.3c0,3.4,2.8,6.2,6.2,6.2h45.2c3.4,0,6.2-2.8,6.2-6.2
			v-5.3C646.1,94.6,638.3,86.8,628.8,86.8z"/>
		<path d="M709.1,161.9c9.1,0,16.4-7.4,16.4-16.4s-7.4-16.4-16.4-16.4s-16.4,7.4-16.4,16.4S700,161.9,709.1,161.9z M720.6,166h-2.1
			c-2.8,1.3-6,2.1-9.4,2.1s-6.5-0.7-9.4-2.1h-2.1c-9.5,0-17.2,7.7-17.2,17.2v5.3c0,3.4,2.8,6.2,6.2,6.2h45.2c3.4,0,6.2-2.8,6.2-6.2
			v-5.3C737.8,173.7,730.1,166,720.6,166z"/>
	</g>
</g>
</svg>
