<?xml version="1.0" encoding="UTF-8" standalone="no"?><!-- Generator: Gravit.io --><svg xmlns="http://www.w3.org/2000/svg" xmlns:xlink="http://www.w3.org/1999/xlink" style="isolation:isolate" viewBox="704.5 412.018 80 79.964" width="80pt" height="79.964pt"><defs><clipPath id="_clipPath_TBOwTjfO2KBN9JzZkd2CV5G2AftB3fhX"><rect x="704.5" y="412.018" width="80" height="79.964"/></clipPath></defs><g clip-path="url(#_clipPath_TBOwTjfO2KBN9JzZkd2CV5G2AftB3fhX)"><g><g><g><circle vector-effect="non-scaling-stroke" cx="744.5178157540004" cy="451.9666000588967" r="38.33725584182821" fill="rgb(208,69,39)"/></g></g><g><g><path d=" M 768.957 454.954 C 773.892 443.809 773.086 431.556 767.849 421.552 C 765.499 419.739 762.914 418.195 760.061 416.919 C 740.691 408.325 718.031 417.053 709.437 436.423 C 704.502 447.569 705.308 459.822 710.545 469.826 C 712.895 471.639 715.48 473.183 718.333 474.459 C 737.703 483.053 760.363 474.324 768.957 454.954 Z " fill="rgb(242,97,52)"/></g></g><g><g><g><path d=" M 744.451 491.982 C 739.046 491.982 733.54 490.874 728.27 488.558 C 708.128 479.595 698.997 455.928 707.926 435.786 C 712.257 426.017 720.146 418.53 730.116 414.703 C 740.087 410.876 750.963 411.145 760.732 415.476 C 770.501 419.806 777.988 427.695 781.815 437.666 C 785.642 447.636 785.373 458.513 781.042 468.282 C 774.463 483.12 759.792 491.982 744.451 491.982 Z  M 744.518 415.274 C 740.053 415.274 735.588 416.08 731.325 417.758 C 722.194 421.283 714.943 428.165 710.981 437.128 C 702.757 455.626 711.149 477.346 729.646 485.57 C 734.48 487.719 739.516 488.726 744.484 488.726 C 758.55 488.726 772.012 480.602 778.088 466.905 C 782.05 457.942 782.318 447.972 778.793 438.841 C 775.268 429.709 768.386 422.458 759.423 418.497 C 754.623 416.315 749.587 415.274 744.518 415.274 Z " fill="rgb(0,0,0)"/></g></g><g><g><path d=" M 763.384 487.115 L 760.9 484.966 C 760.967 484.899 767.144 477.547 767.144 467.879 C 767.144 457.774 761.437 443.07 752.273 429.474 C 743.578 416.583 731.728 417.591 731.593 417.591 L 731.291 414.301 C 731.862 414.233 745.223 413.126 755.025 427.628 C 764.559 441.761 770.468 457.17 770.468 467.879 C 770.434 478.823 763.687 486.779 763.384 487.115 Z " fill="rgb(0,0,0)"/></g></g><g><g><rect x="742.63" y="412.973" width="3.291" height="76.694" transform="matrix(0.424,0.906,-0.906,0.424,837.57,-414.088)" fill="rgb(0,0,0)"/></g></g><g><g><path d=" M 734.413 490.404 C 733.608 490.404 733.104 490.304 733.003 490.27 L 733.742 487.047 C 733.977 487.081 739.785 488.155 746.331 478.688 C 748.11 476.104 749.721 473.552 751.299 471.102 C 756.2 463.38 760.43 456.7 766.473 454.719 C 770.098 453.511 773.422 453.779 776.141 455.491 C 779.23 457.438 781.244 461.131 781.815 465.898 L 778.558 466.301 C 778.088 462.541 776.611 459.688 774.395 458.278 C 772.549 457.103 770.166 456.968 767.547 457.841 C 762.612 459.486 758.685 465.697 754.119 472.881 C 752.541 475.365 750.896 477.95 749.084 480.568 C 743.007 489.297 737.065 490.404 734.413 490.404 Z " fill="rgb(0,0,0)"/></g></g><g><g><path d=" M 727.531 487.551 L 726.256 484.53 C 726.289 484.53 729.109 483.321 732.567 481.206 C 735.689 479.326 743.544 468.953 746.801 462.44 C 750.091 455.861 749.621 450.691 745.223 445.185 C 740.657 439.445 722.127 438.001 715.01 440.653 C 708.9 442.936 708.363 445.89 708.363 445.924 L 705.073 445.555 C 705.106 445.051 705.744 440.586 713.868 437.565 C 721.354 434.778 741.765 435.584 747.808 443.138 C 752.978 449.617 753.615 456.196 749.755 463.918 C 746.465 470.497 738.207 481.643 734.279 484.026 C 730.553 486.242 727.632 487.484 727.531 487.551 Z " fill="rgb(0,0,0)"/></g></g><g><g><path d=" M 781.378 456.868 C 781.11 456.498 774.395 448.005 770.166 439.109 C 765.869 430.112 765.13 421.216 765.097 420.847 L 768.386 420.578 C 768.386 420.679 769.125 429.273 773.153 437.699 C 777.215 446.26 783.896 454.753 783.963 454.82 L 781.378 456.868 Z " fill="rgb(0,0,0)"/></g></g><g><g><path d=" M 711.485 435.416 L 709.739 432.63 C 710.075 432.429 717.964 427.594 726.155 428.232 C 728.27 428.4 730.653 428.669 733.171 428.971 C 739.751 429.743 747.237 430.616 750.695 429.508 C 755.059 428.132 757.711 425.983 758.013 423.667 C 758.248 421.888 757.107 418.363 756.335 416.583 L 759.356 415.274 C 759.591 415.845 761.739 420.847 761.303 424.103 C 760.8 427.796 757.409 430.851 751.702 432.664 C 747.573 433.973 740.053 433.1 732.802 432.261 C 730.318 431.959 727.934 431.69 725.92 431.522 C 718.77 430.951 711.552 435.383 711.485 435.416 Z " fill="rgb(0,0,0)"/></g></g></g></g></g></svg>