<?xml version="1.0" encoding="UTF-8" standalone="no"?><!-- Generator: Gravit.io --><svg xmlns="http://www.w3.org/2000/svg" xmlns:xlink="http://www.w3.org/1999/xlink" style="isolation:isolate" viewBox="694.5 402 100 100" width="100pt" height="100pt"><defs><clipPath id="_clipPath_LSo4UJIvmeoT2wuKkbgm4TwsD0FF1Efl"><rect x="694.5" y="402" width="100" height="100"/></clipPath></defs><g clip-path="url(#_clipPath_LSo4UJIvmeoT2wuKkbgm4TwsD0FF1Efl)"><g><g><path d=" M 735.592 470.669 C 744.306 469.013 764.879 463.464 774.292 447.159 C 781.186 435.219 777.081 419.967 765.162 413.085 C 753.221 406.191 737.969 410.296 731.088 422.215 C 721.674 438.52 727.167 459.089 730.078 467.485 L 717.844 488.675 L 718.17 488.863 C 717.518 488.487 716.662 488.716 716.286 489.368 C 715.91 490.019 716.14 490.875 716.791 491.251 L 721.654 494.059 C 722.305 494.435 723.162 494.205 723.538 493.554 C 723.914 492.903 723.684 492.047 723.033 491.671 L 723.359 491.859 L 735.592 470.669 Z  M 730.142 453.888 C 730.142 453.888 730.142 453.888 730.142 453.888 C 730.09 453.626 730.371 453.441 730.588 453.566 L 735.343 459.67 C 736.323 460.93 737.734 461.745 739.303 461.985 L 747.327 463.231 C 747.544 463.356 747.524 463.692 747.293 463.79 C 747.293 463.79 747.293 463.79 747.293 463.79 C 741.858 465.834 736.931 466.897 733.99 467.428 C 733.831 467.452 733.701 467.377 733.643 467.227 C 732.632 464.415 731.111 459.629 730.142 453.888 Z " fill="rgb(96,56,19)"/><path d=" M 723.538 493.554 C 723.914 492.903 723.684 492.047 723.033 491.671 L 723.359 491.859 L 735.592 470.669 C 744.306 469.013 764.879 463.464 774.292 447.159 C 781.186 435.219 777.081 419.967 765.162 413.085 L 737.323 461.305 C 737.943 461.634 738.635 461.889 739.359 461.989 L 747.383 463.234 C 747.6 463.359 747.579 463.695 747.349 463.793 C 747.349 463.793 747.349 463.793 747.349 463.793 C 741.914 465.837 736.987 466.9 734.046 467.431 C 733.977 467.45 733.9 467.434 733.835 467.396 L 719.232 492.689 L 721.642 494.081 C 722.293 494.457 723.149 494.227 723.538 493.554 Z " fill="rgb(89,51,18)"/><g><path d=" M 749.257 421.531 C 749.478 421.148 749.969 421.016 750.353 421.238 C 750.736 421.459 750.868 421.95 750.646 422.334 C 750.425 422.717 749.934 422.849 749.55 422.627 C 749.167 422.406 749.035 421.915 749.257 421.531 Z " fill="rgb(0,0,0)"/><path d=" M 752.991 423.687 C 753.212 423.304 753.703 423.172 754.087 423.394 C 754.47 423.615 754.602 424.106 754.38 424.49 C 754.159 424.873 753.668 425.005 753.285 424.783 C 752.901 424.562 752.77 424.071 752.991 423.687 Z " fill="rgb(0,0,0)"/><path d=" M 756.725 425.843 C 756.947 425.46 757.438 425.328 757.821 425.55 C 758.204 425.771 758.336 426.262 758.115 426.646 C 757.893 427.029 757.402 427.161 757.019 426.939 C 756.635 426.718 756.504 426.227 756.725 425.843 Z " fill="rgb(0,0,0)"/><path d=" M 760.481 428.012 C 760.702 427.628 761.194 427.497 761.577 427.718 C 761.96 427.94 762.092 428.431 761.871 428.814 C 761.649 429.197 761.158 429.329 760.775 429.108 C 760.391 428.886 760.26 428.395 760.481 428.012 Z " fill="rgb(0,0,0)"/><path d=" M 764.215 430.168 C 764.437 429.784 764.928 429.653 765.311 429.874 C 765.695 430.096 765.826 430.587 765.605 430.97 C 765.383 431.353 764.892 431.485 764.509 431.264 C 764.126 431.042 763.994 430.551 764.215 430.168 Z " fill="rgb(0,0,0)"/><path d=" M 743.717 422.502 C 743.939 422.118 744.43 421.987 744.813 422.208 C 745.197 422.43 745.328 422.921 745.107 423.304 C 744.886 423.687 744.395 423.819 744.011 423.598 C 743.628 423.376 743.496 422.885 743.717 422.502 Z " fill="rgb(0,0,0)"/><path d=" M 747.452 424.658 C 747.673 424.274 748.164 424.143 748.548 424.364 C 748.931 424.585 749.063 425.077 748.841 425.46 C 748.62 425.843 748.129 425.975 747.745 425.754 C 747.362 425.532 747.23 425.041 747.452 424.658 Z " fill="rgb(0,0,0)"/><path d=" M 751.186 426.814 C 751.407 426.43 751.898 426.299 752.282 426.52 C 752.665 426.741 752.797 427.232 752.575 427.616 C 752.354 427.999 751.863 428.131 751.48 427.91 C 751.096 427.688 750.965 427.197 751.186 426.814 Z " fill="rgb(0,0,0)"/><path d=" M 754.92 428.97 C 755.142 428.586 755.633 428.455 756.016 428.676 C 756.399 428.897 756.531 429.388 756.31 429.772 C 756.088 430.155 755.597 430.287 755.214 430.066 C 754.83 429.844 754.699 429.353 754.92 428.97 Z " fill="rgb(0,0,0)"/><path d=" M 758.676 431.138 C 758.897 430.755 759.389 430.623 759.772 430.845 C 760.155 431.066 760.287 431.557 760.066 431.94 C 759.844 432.324 759.353 432.455 758.97 432.234 C 758.586 432.013 758.455 431.522 758.676 431.138 Z " fill="rgb(0,0,0)"/><path d=" M 762.41 433.294 C 762.632 432.911 763.123 432.779 763.506 433 C 763.89 433.222 764.021 433.713 763.8 434.096 C 763.578 434.48 763.087 434.611 762.704 434.39 C 762.321 434.169 762.189 433.678 762.41 433.294 Z " fill="rgb(0,0,0)"/><path d=" M 766.145 435.45 C 766.366 435.067 766.857 434.935 767.24 435.156 C 767.624 435.378 767.755 435.869 767.534 436.252 C 767.313 436.636 766.822 436.767 766.438 436.546 C 766.055 436.325 765.923 435.834 766.145 435.45 Z " fill="rgb(0,0,0)"/><path d=" M 738.157 423.46 C 738.378 423.076 738.869 422.945 739.252 423.166 C 739.636 423.387 739.767 423.878 739.546 424.262 C 739.325 424.645 738.834 424.777 738.45 424.555 C 738.067 424.334 737.935 423.843 738.157 423.46 Z " fill="rgb(0,0,0)"/><path d=" M 741.912 425.628 C 742.134 425.245 742.625 425.113 743.008 425.334 C 743.392 425.556 743.523 426.047 743.302 426.43 C 743.081 426.814 742.59 426.945 742.206 426.724 C 741.823 426.503 741.691 426.012 741.912 425.628 Z " fill="rgb(0,0,0)"/><path d=" M 745.647 427.784 C 745.868 427.401 746.359 427.269 746.743 427.49 C 747.126 427.712 747.258 428.203 747.036 428.586 C 746.815 428.97 746.324 429.101 745.94 428.88 C 745.557 428.659 745.425 428.168 745.647 427.784 Z " fill="rgb(0,0,0)"/><path d=" M 749.381 429.94 C 749.602 429.557 750.093 429.425 750.477 429.646 C 750.86 429.868 750.992 430.359 750.77 430.742 C 750.549 431.126 750.058 431.257 749.675 431.036 C 749.291 430.815 749.16 430.323 749.381 429.94 Z " fill="rgb(0,0,0)"/><path d=" M 753.115 432.096 C 753.337 431.713 753.828 431.581 754.211 431.802 C 754.594 432.024 754.726 432.515 754.505 432.898 C 754.283 433.282 753.792 433.413 753.409 433.192 C 753.025 432.97 752.894 432.479 753.115 432.096 Z " fill="rgb(0,0,0)"/><path d=" M 756.871 434.265 C 757.092 433.881 757.584 433.749 757.967 433.971 C 758.35 434.192 758.482 434.683 758.261 435.067 C 758.039 435.45 757.548 435.582 757.165 435.36 C 756.781 435.139 756.65 434.648 756.871 434.265 Z " fill="rgb(0,0,0)"/><path d=" M 760.605 436.42 C 760.827 436.037 761.318 435.905 761.701 436.127 C 762.085 436.348 762.216 436.839 761.995 437.223 C 761.773 437.606 761.282 437.738 760.899 437.516 C 760.516 437.295 760.384 436.804 760.605 436.42 Z " fill="rgb(0,0,0)"/><path d=" M 764.34 438.576 C 764.561 438.193 765.052 438.061 765.435 438.283 C 765.819 438.504 765.95 438.995 765.729 439.379 C 765.508 439.762 765.017 439.894 764.633 439.672 C 764.25 439.451 764.118 438.96 764.34 438.576 Z " fill="rgb(0,0,0)"/><path d=" M 768.074 440.732 C 768.295 440.349 768.786 440.217 769.17 440.439 C 769.553 440.66 769.685 441.151 769.463 441.535 C 769.242 441.918 768.751 442.05 768.367 441.828 C 767.984 441.607 767.852 441.116 768.074 440.732 Z " fill="rgb(0,0,0)"/><path d=" M 736.352 426.586 C 736.573 426.203 737.064 426.071 737.447 426.292 C 737.831 426.514 737.962 427.005 737.741 427.388 C 737.52 427.772 737.029 427.903 736.645 427.682 C 736.262 427.46 736.13 426.969 736.352 426.586 Z " fill="rgb(0,0,0)"/><path d=" M 740.107 428.754 C 740.329 428.371 740.82 428.239 741.203 428.461 C 741.587 428.682 741.718 429.173 741.497 429.557 C 741.276 429.94 740.785 430.072 740.401 429.85 C 740.018 429.629 739.886 429.138 740.107 428.754 Z " fill="rgb(0,0,0)"/><path d=" M 743.842 430.91 C 744.063 430.527 744.554 430.395 744.938 430.617 C 745.321 430.838 745.453 431.329 745.231 431.713 C 745.01 432.096 744.519 432.228 744.135 432.006 C 743.752 431.785 743.62 431.294 743.842 430.91 Z " fill="rgb(0,0,0)"/><path d=" M 747.576 433.066 C 747.797 432.683 748.288 432.551 748.672 432.773 C 749.055 432.994 749.187 433.485 748.965 433.869 C 748.744 434.252 748.253 434.384 747.87 434.162 C 747.486 433.941 747.355 433.45 747.576 433.066 Z " fill="rgb(0,0,0)"/><path d=" M 751.31 435.222 C 751.532 434.839 752.023 434.707 752.406 434.929 C 752.789 435.15 752.921 435.641 752.7 436.025 C 752.478 436.408 751.987 436.54 751.604 436.318 C 751.22 436.097 751.089 435.606 751.31 435.222 Z " fill="rgb(0,0,0)"/><path d=" M 755.066 437.391 C 755.287 437.007 755.779 436.876 756.162 437.097 C 756.545 437.319 756.677 437.81 756.456 438.193 C 756.234 438.577 755.743 438.708 755.36 438.487 C 754.976 438.265 754.845 437.774 755.066 437.391 Z " fill="rgb(0,0,0)"/><path d=" M 758.8 439.547 C 759.022 439.163 759.513 439.032 759.896 439.253 C 760.28 439.475 760.411 439.966 760.19 440.349 C 759.968 440.732 759.477 440.864 759.094 440.643 C 758.711 440.421 758.579 439.93 758.8 439.547 Z " fill="rgb(0,0,0)"/><path d=" M 762.535 441.703 C 762.756 441.319 763.247 441.188 763.63 441.409 C 764.014 441.631 764.145 442.122 763.924 442.505 C 763.703 442.888 763.212 443.02 762.828 442.799 C 762.445 442.577 762.313 442.086 762.535 441.703 Z " fill="rgb(0,0,0)"/><path d=" M 766.269 443.859 C 766.49 443.475 766.981 443.344 767.365 443.565 C 767.748 443.786 767.88 444.278 767.658 444.661 C 767.437 445.044 766.946 445.176 766.562 444.955 C 766.179 444.733 766.047 444.242 766.269 443.859 Z " fill="rgb(0,0,0)"/><path d=" M 734.547 429.712 C 734.768 429.329 735.259 429.197 735.642 429.419 C 736.026 429.64 736.157 430.131 735.936 430.515 C 735.715 430.898 735.224 431.03 734.84 430.808 C 734.457 430.587 734.325 430.096 734.547 429.712 Z " fill="rgb(0,0,0)"/><path d=" M 738.302 431.881 C 738.524 431.497 739.015 431.366 739.398 431.587 C 739.782 431.809 739.913 432.3 739.692 432.683 C 739.471 433.066 738.98 433.198 738.596 432.977 C 738.213 432.755 738.081 432.264 738.302 431.881 Z " fill="rgb(0,0,0)"/><path d=" M 742.037 434.037 C 742.258 433.653 742.749 433.522 743.133 433.743 C 743.516 433.965 743.648 434.456 743.426 434.839 C 743.205 435.222 742.714 435.354 742.33 435.133 C 741.947 434.911 741.815 434.42 742.037 434.037 Z " fill="rgb(0,0,0)"/><path d=" M 745.771 436.193 C 745.992 435.809 746.483 435.678 746.867 435.899 C 747.25 436.12 747.382 436.612 747.16 436.995 C 746.939 437.378 746.448 437.51 746.065 437.289 C 745.681 437.067 745.55 436.576 745.771 436.193 Z " fill="rgb(0,0,0)"/><path d=" M 749.505 438.349 C 749.727 437.965 750.218 437.834 750.601 438.055 C 750.984 438.276 751.116 438.767 750.895 439.151 C 750.673 439.534 750.182 439.666 749.799 439.445 C 749.415 439.223 749.284 438.732 749.505 438.349 Z " fill="rgb(0,0,0)"/><path d=" M 753.261 440.517 C 753.483 440.134 753.974 440.002 754.357 440.224 C 754.74 440.445 754.872 440.936 754.651 441.319 C 754.429 441.703 753.938 441.834 753.555 441.613 C 753.171 441.392 753.04 440.901 753.261 440.517 Z " fill="rgb(0,0,0)"/><path d=" M 756.995 442.673 C 757.217 442.29 757.708 442.158 758.091 442.38 C 758.475 442.601 758.606 443.092 758.385 443.475 C 758.163 443.859 757.672 443.99 757.289 443.769 C 756.906 443.548 756.774 443.057 756.995 442.673 Z " fill="rgb(0,0,0)"/><path d=" M 760.73 444.829 C 760.951 444.446 761.442 444.314 761.825 444.535 C 762.209 444.757 762.34 445.248 762.119 445.631 C 761.898 446.015 761.407 446.146 761.023 445.925 C 760.64 445.704 760.508 445.213 760.73 444.829 Z " fill="rgb(0,0,0)"/><path d=" M 764.464 446.985 C 764.685 446.602 765.176 446.47 765.56 446.691 C 765.943 446.913 766.075 447.404 765.853 447.787 C 765.632 448.171 765.141 448.302 764.757 448.081 C 764.374 447.86 764.242 447.369 764.464 446.985 Z " fill="rgb(0,0,0)"/><path d=" M 732.742 432.839 C 732.963 432.455 733.454 432.324 733.837 432.545 C 734.221 432.766 734.352 433.257 734.131 433.641 C 733.91 434.024 733.419 434.156 733.035 433.934 C 732.652 433.713 732.52 433.222 732.742 432.839 Z " fill="rgb(0,0,0)"/><path d=" M 736.497 435.007 C 736.719 434.624 737.21 434.492 737.593 434.714 C 737.977 434.935 738.108 435.426 737.887 435.809 C 737.666 436.193 737.175 436.324 736.791 436.103 C 736.408 435.882 736.276 435.391 736.497 435.007 Z " fill="rgb(0,0,0)"/><path d=" M 740.232 437.163 C 740.453 436.78 740.944 436.648 741.328 436.869 C 741.711 437.091 741.843 437.582 741.621 437.965 C 741.4 438.349 740.909 438.48 740.525 438.259 C 740.142 438.038 740.01 437.547 740.232 437.163 Z " fill="rgb(0,0,0)"/><path d=" M 743.966 439.319 C 744.187 438.936 744.678 438.804 745.062 439.025 C 745.445 439.247 745.577 439.738 745.355 440.121 C 745.134 440.505 744.643 440.636 744.26 440.415 C 743.876 440.194 743.745 439.702 743.966 439.319 Z " fill="rgb(0,0,0)"/><path d=" M 747.7 441.475 C 747.922 441.092 748.413 440.96 748.796 441.181 C 749.179 441.403 749.311 441.894 749.09 442.277 C 748.868 442.661 748.377 442.792 747.994 442.571 C 747.61 442.349 747.479 441.858 747.7 441.475 Z " fill="rgb(0,0,0)"/><path d=" M 751.456 443.644 C 751.678 443.26 752.169 443.129 752.552 443.35 C 752.935 443.571 753.067 444.062 752.846 444.446 C 752.624 444.829 752.133 444.961 751.75 444.739 C 751.366 444.518 751.235 444.027 751.456 443.644 Z " fill="rgb(0,0,0)"/><path d=" M 755.19 445.799 C 755.412 445.416 755.903 445.284 756.286 445.506 C 756.67 445.727 756.801 446.218 756.58 446.602 C 756.358 446.985 755.867 447.117 755.484 446.895 C 755.101 446.674 754.969 446.183 755.19 445.799 Z " fill="rgb(0,0,0)"/><path d=" M 758.925 447.955 C 759.146 447.572 759.637 447.44 760.02 447.662 C 760.404 447.883 760.535 448.374 760.314 448.758 C 760.093 449.141 759.602 449.273 759.218 449.051 C 758.835 448.83 758.703 448.339 758.925 447.955 Z " fill="rgb(0,0,0)"/><path d=" M 762.659 450.111 C 762.88 449.728 763.371 449.596 763.755 449.818 C 764.138 450.039 764.27 450.53 764.048 450.914 C 763.827 451.297 763.336 451.429 762.952 451.207 C 762.569 450.986 762.437 450.495 762.659 450.111 Z " fill="rgb(0,0,0)"/><path d=" M 734.68 438.155 C 734.901 437.772 735.392 437.64 735.776 437.862 C 736.159 438.083 736.291 438.574 736.069 438.957 C 735.848 439.341 735.357 439.472 734.974 439.251 C 734.59 439.03 734.459 438.539 734.68 438.155 Z " fill="rgb(0,0,0)"/><path d=" M 738.414 440.311 C 738.636 439.928 739.127 439.796 739.51 440.018 C 739.893 440.239 740.025 440.73 739.804 441.113 C 739.582 441.497 739.091 441.628 738.708 441.407 C 738.324 441.186 738.193 440.695 738.414 440.311 Z " fill="rgb(0,0,0)"/><path d=" M 742.148 442.467 C 742.37 442.084 742.861 441.952 743.244 442.173 C 743.628 442.395 743.759 442.886 743.538 443.269 C 743.317 443.653 742.825 443.784 742.442 443.563 C 742.059 443.342 741.927 442.851 742.148 442.467 Z " fill="rgb(0,0,0)"/><path d=" M 745.883 444.623 C 746.104 444.24 746.595 444.108 746.979 444.329 C 747.362 444.551 747.494 445.042 747.272 445.425 C 747.051 445.809 746.56 445.94 746.176 445.719 C 745.793 445.498 745.661 445.007 745.883 444.623 Z " fill="rgb(0,0,0)"/><path d=" M 749.639 446.792 C 749.86 446.408 750.351 446.277 750.734 446.498 C 751.118 446.719 751.249 447.21 751.028 447.594 C 750.807 447.977 750.316 448.109 749.932 447.887 C 749.549 447.666 749.417 447.175 749.639 446.792 Z " fill="rgb(0,0,0)"/><path d=" M 753.373 448.948 C 753.594 448.564 754.085 448.433 754.469 448.654 C 754.852 448.875 754.984 449.366 754.762 449.75 C 754.541 450.133 754.05 450.265 753.666 450.043 C 753.283 449.822 753.151 449.331 753.373 448.948 Z " fill="rgb(0,0,0)"/><path d=" M 757.107 451.103 C 757.328 450.72 757.819 450.588 758.203 450.81 C 758.586 451.031 758.718 451.522 758.497 451.906 C 758.275 452.289 757.784 452.421 757.401 452.199 C 757.017 451.978 756.886 451.487 757.107 451.103 Z " fill="rgb(0,0,0)"/><path d=" M 736.609 443.437 C 736.831 443.054 737.322 442.922 737.705 443.144 C 738.088 443.365 738.22 443.856 737.999 444.24 C 737.777 444.623 737.286 444.755 736.903 444.533 C 736.519 444.312 736.388 443.821 736.609 443.437 Z " fill="rgb(0,0,0)"/><path d=" M 740.343 445.593 C 740.565 445.21 741.056 445.078 741.439 445.3 C 741.823 445.521 741.954 446.012 741.733 446.396 C 741.512 446.779 741.02 446.911 740.637 446.689 C 740.254 446.468 740.122 445.977 740.343 445.593 Z " fill="rgb(0,0,0)"/><path d=" M 744.078 447.749 C 744.299 447.366 744.79 447.234 745.174 447.456 C 745.557 447.677 745.689 448.168 745.467 448.552 C 745.246 448.935 744.755 449.067 744.371 448.845 C 743.988 448.624 743.856 448.133 744.078 447.749 Z " fill="rgb(0,0,0)"/><path d=" M 747.834 449.918 C 748.055 449.534 748.546 449.403 748.929 449.624 C 749.313 449.846 749.444 450.337 749.223 450.72 C 749.002 451.104 748.511 451.235 748.127 451.014 C 747.744 450.792 747.612 450.301 747.834 449.918 Z " fill="rgb(0,0,0)"/><path d=" M 751.568 452.074 C 751.789 451.69 752.28 451.559 752.664 451.78 C 753.047 452.002 753.179 452.493 752.957 452.876 C 752.736 453.26 752.245 453.391 751.861 453.17 C 751.478 452.948 751.346 452.457 751.568 452.074 Z " fill="rgb(0,0,0)"/></g><rect x="722.971" y="469.394" width="6.393" height="22.387" transform="matrix(0.866,0.5,-0.5,0.866,337.591,-298.702)" fill="rgb(153,153,153)"/><rect x="726.223" y="470.265" width="2.908" height="22.387" transform="matrix(0.866,0.5,-0.5,0.866,338.229,-299.34)" fill="rgb(128,128,128)"/></g><g><g><g><circle vector-effect="non-scaling-stroke" cx="752.6509535076862" cy="431.6659313264824" r="7.808625745187783" fill="rgb(167,176,56)"/></g></g><g><g><path d=" M 757.629 432.268 C 758.634 429.998 758.47 427.502 757.403 425.464 C 756.925 425.095 756.398 424.78 755.817 424.521 C 751.871 422.77 747.256 424.548 745.506 428.493 C 744.5 430.763 744.665 433.259 745.731 435.297 C 746.21 435.666 746.736 435.981 747.318 436.24 C 751.263 437.991 755.878 436.213 757.629 432.268 Z " fill="rgb(188,203,50)"/></g></g><g><g><g><path d=" M 756.398 438.825 C 755.933 438.825 752.87 438.763 750.791 437.245 C 749.663 436.418 749.047 434.811 749.177 433.04 C 749.321 431.139 750.312 429.526 751.844 428.726 C 755.468 426.825 760.446 429.669 760.494 429.704 L 760.145 430.278 C 759.188 429.697 755.017 427.823 752.152 429.327 C 750.832 430.018 749.971 431.427 749.848 433.095 C 749.738 434.613 750.258 436.028 751.188 436.705 C 753.212 438.189 756.412 438.155 756.439 438.155 L 756.453 438.825 C 756.446 438.825 756.425 438.825 756.398 438.825 Z " fill="rgb(255,255,255)"/></g></g></g><g><g><path d=" M 752.637 439.81 C 751.536 439.81 750.415 439.584 749.342 439.112 C 745.239 437.287 743.379 432.466 745.198 428.363 L 745.198 428.363 C 746.08 426.374 747.687 424.849 749.718 424.069 C 751.748 423.29 753.964 423.344 755.954 424.227 C 760.056 426.052 761.916 430.873 760.097 434.975 C 758.75 438.004 755.762 439.81 752.637 439.81 Z  M 752.651 424.186 C 751.742 424.186 750.832 424.356 749.964 424.692 C 748.104 425.409 746.627 426.811 745.82 428.637 C 744.145 432.404 745.854 436.828 749.622 438.504 C 750.606 438.941 751.632 439.146 752.644 439.146 C 755.509 439.146 758.251 437.492 759.489 434.702 C 761.164 430.934 759.454 426.51 755.687 424.835 C 754.716 424.397 753.683 424.186 752.651 424.186 Z " fill="rgb(0,0,0)"/></g></g></g><rect x="694.5" y="402" width="100" height="100" transform="matrix(1,0,0,1,0,0)" fill="none"/></g></g></svg>