<?xml version="1.0" encoding="UTF-8" standalone="no"?><!-- Generator: Gravit.io --><svg xmlns="http://www.w3.org/2000/svg" xmlns:xlink="http://www.w3.org/1999/xlink" style="isolation:isolate" viewBox="703.5 412 80 80" width="80pt" height="80pt"><defs><clipPath id="_clipPath_PLKWMI93auXcKL8ZjVUO8gvumFq1FS57"><rect x="703.5" y="412" width="80" height="80"/></clipPath></defs><g clip-path="url(#_clipPath_PLKWMI93auXcKL8ZjVUO8gvumFq1FS57)"><clipPath id="_clipPath_Z3V79kescQUmHxS1LWlorPTVgXXU3lQe"><rect x="703.5" y="412" width="80" height="80" transform="matrix(1,0,0,1,0,0)" fill="rgb(255,255,255)"/></clipPath><g clip-path="url(#_clipPath_Z3V79kescQUmHxS1LWlorPTVgXXU3lQe)"><g><g><g><g><g><g><g><ellipse vector-effect="non-scaling-stroke" cx="743.4999955200176" cy="451.9843854799842" rx="38.352230986554105" ry="38.337263854036394" fill="rgb(217,217,216)"/></g></g><g><g><path d=" M 767.949 454.938 C 772.885 443.793 772.079 431.54 766.84 421.536 C 764.489 419.723 761.904 418.179 759.049 416.903 C 739.671 408.309 717.003 417.038 708.405 436.408 C 703.468 447.553 704.274 459.806 709.513 469.81 C 711.864 471.623 714.45 473.167 717.305 474.443 C 736.716 483.037 759.351 474.308 767.949 454.938 Z " fill="rgb(255,255,255)"/></g></g><g><g><path d=" M 743.5 492 C 737.992 492 732.484 490.859 727.279 488.542 C 707.129 479.579 697.994 455.912 706.928 435.77 L 706.928 435.77 C 715.894 415.628 739.571 406.496 759.721 415.426 C 779.871 424.389 789.005 448.056 780.072 468.199 C 775.74 477.968 767.848 485.454 757.874 489.281 C 753.205 491.094 748.336 492 743.5 492 Z  M 709.95 437.079 C 701.722 455.576 710.118 477.296 728.622 485.521 C 737.589 489.482 747.563 489.751 756.698 486.226 C 765.833 482.701 773.087 475.819 777.05 466.856 C 785.278 448.359 776.882 426.639 758.377 418.414 C 739.906 410.223 718.144 418.582 709.95 437.079 L 709.95 437.079 L 709.95 437.079 L 709.95 437.079 Z " fill="rgb(0,0,0)"/></g></g><g><g><path d=" M 731.947 453.092 L 750.452 454.468 L 757.806 437.885 L 743.802 427.444 C 743.802 427.444 731.746 433.521 728.018 435.904 L 731.947 453.092 L 731.947 453.092 L 731.947 453.092 Z " fill="rgb(0,0,0)"/></g></g><g><g><path d=" M 722.443 484.044 C 722.443 484.044 726.91 483.675 730.839 480.452 C 730.839 480.452 723.551 472.429 722.544 466.587 C 722.544 466.587 715.357 465.614 710.689 462.861 L 711.058 472.462 L 722.443 484.044 L 722.443 484.044 L 722.443 484.044 Z " fill="rgb(0,0,0)"/></g></g><g><g><path d=" M 750.452 455.778 C 750.418 455.778 750.384 455.778 750.351 455.778 L 731.846 454.401 C 731.275 454.368 730.772 453.931 730.671 453.394 L 726.742 436.206 C 726.607 435.669 726.842 435.098 727.313 434.796 C 731.04 432.413 742.727 426.538 743.198 426.269 C 743.634 426.034 744.171 426.102 744.575 426.404 L 758.579 436.844 C 759.083 437.213 759.25 437.885 758.982 438.422 L 751.627 455.006 C 751.459 455.476 750.989 455.778 750.452 455.778 Z  M 733.022 451.85 L 749.646 453.058 L 756.194 438.288 L 743.668 428.989 C 741.216 430.231 733.156 434.326 729.529 436.508 L 733.022 451.85 L 733.022 451.85 L 733.022 451.85 Z " fill="rgb(0,0,0)"/></g></g><g><g><path d=" M 705.618 445.874 L 708.372 447.117 C 708.372 447.117 711.193 439.093 716.163 434.192 C 716.163 434.192 715.558 428.653 718.514 422.845 C 711.596 429.459 706.793 436.945 705.618 445.874 Z " fill="rgb(0,0,0)"/></g></g><g><g><path d=" M 708.372 448.426 C 708.204 448.426 708.002 448.392 707.834 448.325 L 705.08 447.083 L 706.155 444.666 L 707.666 445.337 C 708.674 442.887 711.125 437.549 714.82 433.688 C 714.752 431.976 714.82 427.209 717.338 422.241 L 719.689 423.449 C 716.969 428.787 717.473 433.991 717.473 434.024 C 717.506 434.427 717.372 434.83 717.103 435.098 C 712.435 439.731 709.681 447.452 709.648 447.519 C 709.513 447.855 709.278 448.157 708.943 448.291 C 708.741 448.392 708.573 448.426 708.372 448.426 Z " fill="rgb(0,0,0)"/></g></g><g><g><path d=" M 722.577 485.353 L 722.342 482.735 L 722.443 484.044 L 722.342 482.735 C 722.376 482.735 725.701 482.399 728.925 480.25 C 726.977 477.934 722.678 472.462 721.469 467.762 C 719.689 467.46 715.659 466.654 712.099 465.077 L 712.402 472.429 L 709.782 472.529 L 709.413 462.928 C 709.379 462.458 709.648 461.988 710.051 461.753 C 710.454 461.518 710.991 461.518 711.394 461.753 C 715.794 464.338 722.712 465.312 722.779 465.312 C 723.35 465.379 723.82 465.815 723.887 466.386 C 724.827 471.791 731.779 479.512 731.846 479.579 C 732.081 479.848 732.216 480.217 732.182 480.553 C 732.149 480.888 731.981 481.258 731.712 481.493 C 727.481 484.883 722.779 485.32 722.577 485.353 Z " fill="rgb(0,0,0)"/></g></g><g><g><path d=" M 748.504 481.862 C 748.504 481.862 754.784 476.088 758.209 469.575 C 758.209 469.575 767.008 469.441 772.012 467.494 C 772.012 467.494 771.173 476.054 769.292 480.351 C 769.292 480.351 763.952 484.413 755.623 486.159 C 755.623 486.192 751.426 484.245 748.504 481.862 Z " fill="rgb(0,0,0)"/></g></g><g><g><path d=" M 755.623 487.502 C 755.422 487.502 755.254 487.468 755.053 487.367 C 754.885 487.3 750.687 485.32 747.664 482.869 C 747.362 482.634 747.194 482.265 747.194 481.895 C 747.194 481.526 747.328 481.157 747.631 480.888 C 747.698 480.821 753.776 475.181 757.068 468.971 C 757.303 468.534 757.739 468.266 758.209 468.266 C 758.31 468.266 766.84 468.098 771.576 466.285 C 772.012 466.117 772.482 466.184 772.852 466.453 C 773.221 466.722 773.423 467.158 773.355 467.628 C 773.322 467.997 772.482 476.457 770.501 480.888 C 770.4 481.09 770.266 481.258 770.098 481.392 C 769.863 481.56 764.422 485.655 755.892 487.468 C 755.791 487.502 755.691 487.502 755.623 487.502 Z  M 750.519 481.761 C 752.567 483.205 754.851 484.38 755.758 484.816 C 762.441 483.305 767.075 480.318 768.217 479.512 C 769.393 476.658 770.131 472.026 770.467 469.374 C 766.269 470.515 760.963 470.784 758.982 470.851 C 756.362 475.618 752.433 479.814 750.519 481.761 Z " fill="rgb(0,0,0)"/></g></g><g><g><path d=" M 781.449 446.378 C 781.449 446.378 780.274 450.474 777.385 451.85 C 777.385 451.85 774.9 440.268 770.635 437.515 C 770.635 437.515 770.937 431.171 770.098 428.015 C 770.098 428.015 774.161 429.559 775.74 431.238 L 781.449 446.378 L 781.449 446.378 L 781.449 446.378 Z " fill="rgb(0,0,0)"/></g></g><g><g><path d=" M 777.419 453.193 C 777.218 453.193 777.016 453.159 776.848 453.058 C 776.479 452.891 776.244 452.555 776.143 452.152 C 775.471 449.064 773.087 440.671 769.964 438.623 C 769.561 438.355 769.359 437.918 769.359 437.448 C 769.359 437.381 769.628 431.238 768.855 428.351 C 768.721 427.881 768.889 427.377 769.258 427.042 C 769.628 426.706 770.131 426.605 770.602 426.773 C 771.038 426.941 775.001 428.485 776.747 430.298 L 774.833 432.111 C 774.195 431.439 772.986 430.734 771.844 430.197 C 772.113 432.715 772.046 435.568 772.012 436.878 C 775.236 439.597 777.318 446.21 778.225 449.601 C 779.333 448.392 780.005 446.747 780.206 446.009 L 782.759 446.714 C 782.692 446.915 781.382 451.414 777.99 453.025 C 777.788 453.126 777.587 453.193 777.419 453.193 Z " fill="rgb(0,0,0)"/></g></g><g><g><rect x="743.29" y="417.634" width="2.653" height="10.008" transform="matrix(0.99,0.142,-0.142,0.99,67.55,-101.44)" fill="rgb(0,0,0)"/></g></g><g><g><rect x="716.41" y="433.757" width="12.002" height="2.656" transform="matrix(0.99,0.143,-0.143,0.99,69.62,-98.807)" fill="rgb(0,0,0)"/></g></g><g><g><rect x="726.019" y="451.679" width="2.653" height="16.422" transform="matrix(0.821,0.571,-0.571,0.821,392.806,-332.961)" fill="rgb(0,0,0)"/></g></g><g><g><rect x="701.65" y="453.254" width="15.884" height="2.649" transform="matrix(0.145,0.989,-0.989,0.145,1056.427,-313.451)" fill="rgb(0,0,0)"/></g></g><g><g><path d=" M 743.399 483.742 C 740.343 483.742 736.011 483.305 730.469 481.727 L 731.208 479.21 C 742.224 482.399 748.034 480.653 748.101 480.653 L 748.907 483.171 C 748.772 483.171 746.925 483.742 743.399 483.742 Z " fill="rgb(0,0,0)"/></g></g><g><g><rect x="745.894" y="460.748" width="16.989" height="2.653" transform="matrix(0.456,0.89,-0.89,0.456,821.633,-420.021)" fill="rgb(0,0,0)"/></g></g><g><g><path d=" M 773.255 467.997 L 770.803 467.024 C 770.837 466.923 775.035 456.516 776.109 451.581 L 778.695 452.152 C 777.553 457.288 773.423 467.561 773.255 467.997 Z " fill="rgb(0,0,0)"/></g></g><g><g><rect x="762.938" y="431.793" width="2.656" height="12.883" transform="matrix(0.029,1,-1,0.029,1180.162,-338.414)" fill="rgb(0,0,0)"/></g></g><g><g><path d=" M 770.131 428.015 C 767.68 423.785 763.818 420.16 759.049 416.903 C 759.049 416.903 749.545 416.333 745.213 417.541 C 745.213 417.541 737.757 415.158 733.929 414.788 C 750.183 411.633 762.777 415.057 770.131 428.015 Z " fill="rgb(0,0,0)"/></g></g><g><g><path d=" M 768.99 428.686 C 766.874 424.994 763.448 421.57 758.612 418.213 C 756.866 418.112 749.175 417.81 745.582 418.85 C 745.347 418.917 745.078 418.917 744.81 418.85 C 744.742 418.817 737.455 416.534 733.794 416.165 L 734.063 413.546 C 737.556 413.882 743.668 415.728 745.246 416.232 C 749.881 415.09 758.747 415.628 759.15 415.628 C 759.385 415.628 759.62 415.728 759.821 415.863 C 765.161 419.522 768.922 423.282 771.273 427.411 L 768.99 428.686 L 768.99 428.686 L 768.99 428.686 Z " fill="rgb(0,0,0)"/></g></g></g></g></g></g></g></g></g></svg>