<?xml version="1.0" encoding="UTF-8" standalone="no"?><!-- Generator: Gravit.io --><svg xmlns="http://www.w3.org/2000/svg" xmlns:xlink="http://www.w3.org/1999/xlink" style="isolation:isolate" viewBox="766 407 90 90" width="90pt" height="90pt"><defs><clipPath id="_clipPath_8537c9jByOvsDBlcrRH1R9ptGMwvXGHU"><rect x="766" y="407" width="90" height="90"/></clipPath></defs><g clip-path="url(#_clipPath_8537c9jByOvsDBlcrRH1R9ptGMwvXGHU)"><g><g><rect x="793.134" y="469.566" width="11.512" height="2.771" transform="matrix(0.866,0.5,-0.5,0.866,342.517,-336.355)" fill="rgb(93,93,93)"/><path d=" M 790.709 492.602 L 784.252 488.874 C 783.592 488.492 782.751 488.718 782.369 489.378 L 782.369 489.378 C 781.988 490.039 782.213 490.88 782.874 491.262 L 789.331 494.99 C 789.991 495.371 790.833 495.146 791.214 494.485 L 791.214 494.485 C 791.596 493.824 791.37 492.983 790.709 492.602 Z " fill="rgb(70,70,70)"/><rect x="789.129" y="470.698" width="7.402" height="21.471" transform="matrix(0.866,0.5,-0.5,0.866,346.946,-331.921)" fill="rgb(67,119,202)"/><g><rect x="792.813" y="473.331" width="7.402" height="3.44" transform="matrix(0.866,0.5,-0.5,0.866,344.248,-334.618)" fill="rgb(53,94,159)"/><rect x="790.357" y="477.585" width="7.402" height="3.44" transform="matrix(0.866,0.5,-0.5,0.866,346.047,-332.82)" fill="rgb(53,94,159)"/><rect x="787.901" y="481.839" width="7.402" height="3.44" transform="matrix(0.866,0.5,-0.5,0.866,347.845,-331.022)" fill="rgb(53,94,159)"/><rect x="785.438" y="486.105" width="7.402" height="3.44" transform="matrix(0.866,0.5,-0.5,0.866,349.648,-329.219)" fill="rgb(53,94,159)"/></g><g><g><rect x="819.434" y="412.081" width="1.004" height="44.854" transform="matrix(0.866,0.5,-0.5,0.866,327.115,-351.761)" fill="rgb(207,218,224)"/></g><g><rect x="816.351" y="410.301" width="1.004" height="44.854" transform="matrix(0.866,0.5,-0.5,0.866,325.812,-350.458)" fill="rgb(207,218,224)"/></g><g><rect x="813.268" y="408.521" width="1.004" height="44.854" transform="matrix(0.866,0.5,-0.5,0.866,324.508,-349.155)" fill="rgb(207,218,224)"/></g><g><rect x="810.187" y="409.472" width="1.004" height="39.38" transform="matrix(0.866,0.5,-0.5,0.866,323.203,-347.854)" fill="rgb(207,218,224)"/></g><g><rect x="807.093" y="410.911" width="1.004" height="32.928" transform="matrix(0.866,0.5,-0.5,0.866,321.895,-346.546)" fill="rgb(207,218,224)"/></g><g><rect x="822.519" y="413.862" width="1.004" height="44.854" transform="matrix(0.866,0.5,-0.5,0.866,328.418,-353.065)" fill="rgb(207,218,224)"/></g><g><rect x="825.602" y="415.642" width="1.004" height="44.854" transform="matrix(0.866,0.5,-0.5,0.866,329.722,-354.368)" fill="rgb(207,218,224)"/></g><g><rect x="828.688" y="420.153" width="1.004" height="39.38" transform="matrix(0.866,0.5,-0.5,0.866,331.022,-355.674)" fill="rgb(207,218,224)"/></g><g><rect x="831.772" y="425.16" width="1.004" height="32.928" transform="matrix(0.866,0.5,-0.5,0.866,332.326,-356.977)" fill="rgb(207,218,224)"/></g></g><g><g><rect x="801.553" y="434.003" width="36.756" height="1.004" transform="matrix(0.866,0.5,-0.5,0.866,327.113,-351.759)" fill="rgb(238,241,246)"/></g><g><rect x="803.34" y="430.909" width="36.756" height="1.004" transform="matrix(0.866,0.5,-0.5,0.866,325.805,-353.067)" fill="rgb(238,241,246)"/></g><g><rect x="805.12" y="427.824" width="36.756" height="1.004" transform="matrix(0.866,0.5,-0.5,0.866,324.501,-354.371)" fill="rgb(238,241,246)"/></g><g><rect x="809.135" y="424.741" width="32.285" height="1.004" transform="matrix(0.866,0.5,-0.5,0.866,323.198,-355.673)" fill="rgb(238,241,246)"/></g><g><rect x="813.566" y="421.658" width="26.984" height="1.004" transform="matrix(0.866,0.5,-0.5,0.866,321.895,-356.977)" fill="rgb(238,241,246)"/></g><g><rect x="815.219" y="418.795" width="26.984" height="1.004" transform="matrix(0.866,0.5,-0.5,0.866,320.685,-358.187)" fill="rgb(238,241,246)"/></g><g><rect x="799.772" y="437.087" width="36.756" height="1.004" transform="matrix(0.866,0.5,-0.5,0.866,328.416,-350.456)" fill="rgb(238,241,246)"/></g><g><rect x="797.992" y="440.17" width="36.756" height="1.004" transform="matrix(0.866,0.5,-0.5,0.866,329.719,-349.152)" fill="rgb(238,241,246)"/></g><g><rect x="798.448" y="443.255" width="32.285" height="1.004" transform="matrix(0.866,0.5,-0.5,0.866,331.023,-347.849)" fill="rgb(238,241,246)"/></g><g><rect x="799.318" y="446.337" width="26.984" height="1.004" transform="matrix(0.866,0.5,-0.5,0.866,332.326,-346.546)" fill="rgb(238,241,246)"/></g><g><rect x="797.578" y="449.351" width="26.984" height="1.004" transform="matrix(0.866,0.5,-0.5,0.866,333.6,-345.272)" fill="rgb(238,241,246)"/></g></g><g><path d=" M 801.695 449.855 L 799.823 460.459 L 807.52 464.903 L 815.768 457.98 C 812.935 457.828 810.205 457.04 807.748 455.621 C 805.29 454.202 803.243 452.233 801.695 449.855 Z " fill="none"/><path d=" M 832.404 412.915 C 827.558 410.118 821.732 409.768 815.96 411.922 C 810.329 414.019 805.437 418.289 802.177 423.935 L 805.504 425.855 C 811.24 415.921 822.438 411.597 830.472 416.236 C 838.505 420.874 840.367 432.722 834.624 442.668 L 837.951 444.589 C 841.211 438.943 842.463 432.572 841.463 426.646 C 840.477 420.59 837.25 415.713 832.404 412.915 Z " fill="rgb(36,157,157)"/><path d=" M 809.669 452.294 C 801.635 447.656 799.773 435.808 805.516 425.862 L 802.189 423.941 C 798.93 429.587 797.678 435.958 798.677 441.883 C 798.756 442.362 798.854 442.836 798.965 443.286 L 794.773 466.957 L 799.607 469.747 L 804.441 472.538 L 822.845 457.073 C 823.297 456.932 823.756 456.78 824.203 456.621 C 829.835 454.524 834.727 450.254 837.986 444.609 L 834.659 442.688 C 828.9 452.609 817.702 456.932 809.669 452.294 Z  M 807.52 464.903 L 799.812 460.452 L 801.683 449.848 C 803.232 452.226 805.279 454.196 807.736 455.615 C 810.194 457.034 812.923 457.821 815.756 457.973 L 807.52 464.903 Z " fill="rgb(139,139,139)"/></g></g><g><g><g><circle vector-effect="non-scaling-stroke" cx="819.3268778951137" cy="429.18685768478184" r="7.0277631706690045" fill="rgb(167,176,56)"/></g></g><g><g><path d=" M 823.807 429.728 C 824.712 427.685 824.564 425.439 823.604 423.605 C 823.173 423.273 822.699 422.99 822.176 422.756 C 818.625 421.181 814.471 422.781 812.896 426.331 C 811.991 428.375 812.139 430.621 813.099 432.455 C 813.53 432.787 814.004 433.07 814.527 433.304 C 818.078 434.879 822.232 433.279 823.807 429.728 Z " fill="rgb(188,203,50)"/></g></g><g><g><g><path d=" M 822.699 435.63 C 822.281 435.63 819.524 435.575 817.653 434.208 C 816.638 433.464 816.084 432.018 816.201 430.424 C 816.33 428.713 817.222 427.261 818.601 426.541 C 821.862 424.83 826.342 427.39 826.385 427.421 L 826.072 427.938 C 825.21 427.415 821.456 425.728 818.878 427.082 C 817.69 427.704 816.915 428.971 816.804 430.473 C 816.705 431.839 817.173 433.113 818.01 433.722 C 819.831 435.058 822.712 435.027 822.736 435.027 L 822.748 435.63 C 822.742 435.63 822.724 435.63 822.699 435.63 Z " fill="rgb(255,255,255)"/></g></g></g><g><g><path d=" M 819.315 436.516 C 818.324 436.516 817.315 436.313 816.348 435.888 C 812.656 434.245 810.982 429.907 812.619 426.215 L 812.619 426.215 C 813.413 424.424 814.859 423.051 816.687 422.35 C 818.515 421.648 820.508 421.698 822.299 422.491 C 825.992 424.135 827.665 428.473 826.028 432.165 C 824.816 434.892 822.127 436.516 819.315 436.516 Z  M 819.327 422.454 C 818.508 422.454 817.69 422.608 816.908 422.91 C 815.235 423.556 813.905 424.818 813.179 426.461 C 811.671 429.851 813.21 433.833 816.601 435.341 C 817.487 435.735 818.41 435.919 819.321 435.919 C 821.899 435.919 824.367 434.43 825.481 431.919 C 826.988 428.528 825.45 424.547 822.059 423.039 C 821.185 422.645 820.256 422.454 819.327 422.454 Z " fill="rgb(0,0,0)"/></g></g></g><rect x="766" y="407" width="90" height="90" transform="matrix(1,0,0,1,0,0)" fill="none"/></g></g></svg>